<svg class="svg-icon" style="width: 1em; height: 1em;vertical-align: middle;fill: currentColor;overflow: hidden;" viewBox="0 0 1024 1024" version="1.1" xmlns="http://www.w3.org/2000/svg"><path d="M946.752 410.825L527.008 79.82a28.047 28.047 0 0 0-34.718 0L72.547 410.825c-12.156 9.583-14.251 27.217-4.654 39.374 9.597 12.199 27.271 14.253 39.373 4.655l48.52-38.26v513.949c0 15.484 12.54 28.039 28.037 28.039H835.48c15.498 0 28.038-12.555 28.038-28.04V416.594l48.518 38.26a27.917 27.917 0 0 0 17.331 6.024c8.297 0 16.51-3.655 22.042-10.679 9.581-12.156 7.5-29.79-4.656-39.373z m-553.25 490.38V668.855h232.323v232.347H393.502z m413.937 1.3h-125.54V640.817c0-15.484-12.54-28.039-28.038-28.039H365.464c-15.498 0-28.037 12.555-28.037 28.04v261.687H211.859V372.374l297.79-234.832 297.79 234.832v530.13z" fill="#3E3A39" /></svg>